<?xml version="1.0" encoding="utf-8"?>
<!-- Generator: Adobe Illustrator 17.0.0, SVG Export Plug-In . SVG Version: 6.00 Build 0)  -->
<!DOCTYPE svg PUBLIC "-//W3C//DTD SVG 1.1//EN" "http://www.w3.org/Graphics/SVG/1.1/DTD/svg11.dtd">
<svg version="1.1" xmlns="http://www.w3.org/2000/svg" xmlns:xlink="http://www.w3.org/1999/xlink" x="0px" y="0px"
	 width="324.267px" height="220px" viewBox="0 0 324.267 220" enable-background="new 0 0 324.267 220" xml:space="preserve">
<g id="BACKGROUND_2" display="none">
</g>
<g id="BACKGROUND_1" display="none">
</g>
<g id="DESIGNED_BY_FREEPIK">
	<g>
		<polygon opacity="0.4" points="235.875,39.127 232.603,35.855 229.484,38.974 226.365,35.855 223.093,39.127 226.212,42.246 
			223.093,45.365 226.365,48.637 229.484,45.518 232.603,48.637 235.875,45.365 232.756,42.246 		"/>
		<polygon opacity="0.4" points="36.002,156.9 32.73,153.628 29.611,156.747 26.491,153.628 23.219,156.9 26.339,160.019 
			23.219,163.139 26.491,166.411 29.611,163.291 32.73,166.411 36.002,163.139 32.883,160.019 		"/>
		<polygon opacity="0.4" points="95.495,17.469 92.223,14.197 89.104,17.316 85.984,14.197 82.712,17.469 85.831,20.589 
			82.712,23.708 85.984,26.98 89.104,23.861 92.223,26.98 95.495,23.708 92.376,20.589 		"/>
		<polygon opacity="0.4" points="301.086,180.89 297.814,177.618 294.695,180.737 291.576,177.618 288.304,180.89 291.423,184.009 
			288.304,187.128 291.576,190.4 294.695,187.281 297.814,190.4 301.086,187.128 297.967,184.009 		"/>
		<g opacity="0.4">
			<path d="M36.001,53.413c-2.633,0-4.775-2.142-4.775-4.775c0-2.633,2.142-4.775,4.775-4.775c2.633,0,4.776,2.142,4.776,4.775
				C40.777,51.27,38.634,53.413,36.001,53.413z M36.001,45.838c-1.544,0-2.799,1.256-2.799,2.799s1.255,2.799,2.799,2.799
				c1.544,0,2.8-1.256,2.8-2.799S37.545,45.838,36.001,45.838z"/>
		</g>
		<g opacity="0.4">
			<path d="M174.719,10.051c-2.633,0-4.775-2.142-4.775-4.775s2.142-4.775,4.775-4.775c2.633,0,4.776,2.142,4.776,4.775
				S177.352,10.051,174.719,10.051z M174.719,2.476c-1.544,0-2.799,1.256-2.799,2.799s1.255,2.799,2.799,2.799
				c1.544,0,2.8-1.256,2.8-2.799S176.263,2.476,174.719,2.476z"/>
		</g>
		<g opacity="0.4">
			<path d="M308.605,76.947c-2.633,0-4.775-2.142-4.775-4.775c0-2.633,2.142-4.775,4.775-4.775s4.776,2.142,4.776,4.775
				C313.381,74.804,311.238,76.947,308.605,76.947z M308.605,69.372c-1.544,0-2.799,1.256-2.799,2.799s1.255,2.799,2.799,2.799
				s2.8-1.256,2.8-2.799S310.149,69.372,308.605,69.372z"/>
		</g>
		<g opacity="0.4">
			<path d="M247.7,155.759c-2.633,0-4.775-2.142-4.775-4.775c0-2.633,2.142-4.775,4.775-4.775c2.633,0,4.776,2.142,4.776,4.775
				C252.476,153.617,250.333,155.759,247.7,155.759z M247.7,148.185c-1.544,0-2.799,1.256-2.799,2.799
				c0,1.544,1.255,2.799,2.799,2.799c1.544,0,2.8-1.256,2.8-2.799C250.5,149.44,249.244,148.185,247.7,148.185z"/>
		</g>
		<g opacity="0.4">
			<path d="M82.712,216.164c-2.633,0-4.775-2.142-4.775-4.775c0-2.633,2.142-4.775,4.775-4.775c2.633,0,4.776,2.142,4.776,4.775
				C87.488,214.022,85.345,216.164,82.712,216.164z M82.712,208.59c-1.544,0-2.799,1.256-2.799,2.799
				c0,1.544,1.255,2.799,2.799,2.799s2.8-1.256,2.8-2.799C85.512,209.845,84.256,208.59,82.712,208.59z"/>
		</g>
		<circle opacity="0.4" cx="91.509" cy="51.549" r="8.881"/>
		<circle opacity="0.4" cx="95.924" cy="153.783" r="4.467"/>
		<circle opacity="0.4" cx="317.847" cy="139.389" r="4.467"/>
		<circle opacity="0.4" cx="6.42" cy="82.187" r="4.467"/>
		<circle opacity="0.4" cx="229.484" cy="82.187" r="4.467"/>
		<circle opacity="0.4" cx="220.179" cy="206.614" r="6.717"/>
		<g>
			<g>
				<path fill="#FFFFFF" d="M51.689,151.358v-20.819H10.886V113.91l46.807-60.09h12.72v59.948h12.299v16.771H70.413v20.819H51.689z
					 M29.611,113.768h24.171v-31.58L29.611,113.768z"/>
			</g>
			<g>
				<path fill="#FFFFFF" d="M269.779,151.358v-20.819h-40.803V113.91l46.807-60.09h12.72v59.948h12.299v16.771h-12.299v20.819
					H269.779z M247.7,113.768h24.171v-31.58L247.7,113.768z"/>
			</g>
		</g>
		<path opacity="0.15" fill="#212121" d="M229.525,157.943l0.37-0.339c0.552-0.501,0.592-1.362,0.086-1.914l-7.493-8.186
			c7.715-9.71,12.555-21.86,13.142-35.2c1.488-33.641-24.574-62.117-58.214-63.606c-33.646-1.488-62.122,24.574-63.611,58.214
			c-1.488,33.646,24.579,62.123,58.219,63.611c13.34,0.587,25.865-3.154,36.222-9.983l7.493,8.186
			c0.506,0.552,1.362,0.592,1.914,0.086l0.37-0.339l46.867,47.692h21.131L229.525,157.943z"/>
		<g>
			<path fill="#EE6C4D" d="M270.348,205.464l-59.408-59.414l-11.634,11.634l59.414,59.407c3.4,3.4,8.98,3.169,12.087-0.5h0
				C273.573,213.328,273.373,208.489,270.348,205.464z"/>
			<path fill="#E0E0E0" d="M190.922,152.07l10.921,10.922c0.558,0.558,1.462,0.558,2.02,0l12.384-12.384
				c0.558-0.558,0.558-1.462,0-2.02l-10.922-10.921L190.922,152.07z"/>
			<polygon fill="#BDBDBD" points="207.048,139.389 208.44,140.781 196.737,157.885 191.59,152.738 			"/>
			<polygon opacity="0.64" fill="#212121" points="204.24,162.615 215.87,150.984 216.665,151.779 207.573,165.948 			"/>
			<path fill="#F5F5F5" d="M155.844,38.254c-35.531,0-64.335,28.804-64.335,64.335s28.804,64.335,64.335,64.335
				s64.335-28.804,64.335-64.335S191.376,38.254,155.844,38.254z M155.844,153.628c-28.188,0-51.04-22.851-51.04-51.04
				c0-28.188,22.851-51.04,51.04-51.04s51.04,22.851,51.04,51.04C206.884,130.777,184.033,153.628,155.844,153.628z"/>
			
				<ellipse transform="matrix(-0.7071 -0.7071 0.7071 -0.7071 163.0841 211.8943)" fill="#FFFFFF" cx="125.427" cy="72.171" rx="4.889" ry="18.904"/>
		</g>
		<text transform="matrix(1 0 0 1 22.6958 195.4565)" fill="#FFFFFF" font-family="'OpenSans-Extrabold'" font-size="23.4717">Página não encontrada</text>
	</g>
</g>
</svg>
